<svg xmlns="http://www.w3.org/2000/svg" width="352.6" height="352.6" viewBox="0 0 352.6 352.6"><path d="M311.6 286.4h.1c4.4 0 5.6 2.5 5.6 4.7s-1 7.4-6.8 7.4h-.1c-4.3 0-5.4-2.7-5.4-5.1-.1-2.4.9-7 6.6-7m0 20.9c21.5 0 23.7-9 24.4-13.9.2-1.3.2-2.3.2-3 0-5.1-2.8-12.8-21.4-12.8h-4.3c-21 0-23.6 8.8-24.3 13.6-.1.8-.2 1.9-.2 2.8 0 5.1 2.8 13.3 21.5 13.3h4.1zm-25-28.9H268l-4.4 28.1h18.6l4.4-28.1zm1.7-10.8h-18.6l-1.5 9.2h18.6l1.5-9.2zm-39.5 0l-2.2 14.1c-1.5-1-5.4-3.5-12.9-3.5h-1.1c-10.7 0-15.6 5.8-16.8 12.3-.2 1.1-.3 2.7-.3 3.9 0 6.4 3.8 12.4 13.7 12.4h.9c7.9 0 11.8-2.8 13.1-3.9l-.6 3.7h18.6l6.2-38.9h-18.6zm-3.9 25.4c-.4 2-1.8 4.9-6 4.9h-.2c-3.1 0-4.2-2.2-4.2-4.6 0-2.9 1.3-6.3 5.6-6.3h.2c3.6 0 4.8 2.2 4.8 4.3-.1.6-.1 1.1-.2 1.7m-60.2 14.1c7.5 0 11.3-2.8 12.8-4.3.2 2.4 1.7 3.8 4 3.8h11.3l1.3-8.2h-1.5c-1 0-1.2-.5-1.1-1.2l1.5-9.5c.7-4.5-.5-10-17.5-10h-2.6c-16.7 0-17.9 6.1-18.5 9.7h12.8c.3-.9.6-2.9 6.5-2.9h.1c5.3 0 5.8 1.1 5.8 2.1 0 .8-.5 1.4-1.8 1.5l-13.2 1.2c-4.7.4-7.5 1.2-9.5 2.7-2.5 1.8-3.1 4.5-3.1 7 0 4.4 3.2 8.2 12.1 8.2h.6zm4.9-6.8c-3.2 0-4.1-1.3-4.1-2.6 0-1.5.9-2.3 3.7-2.8l9.4-1.7-.2 1.4c-.7 3.3-4 5.7-8.8 5.7m-55.1-7.1h13.8c5.8 0 7.5 2.4 6.8 6.8l-.7 4.3c-.2 1.3-.2 1.9.1 2.2h14.8l.1-.3c-.2-.6-.5-1.7-.1-4.1l1-6.1c.8-5-2.3-7.9-6.4-9.1 4-.9 9.3-3.9 9.3-10 0-5.6-4.1-9.3-14.3-9.3h-34.7l-6.2 38.9h14.5l2-13.3zm1.5-9.4l1.1-6.7h16.6c3 0 4 1.2 4 2.9 0 1.8-1.3 3.8-4.9 3.8H136zm-20.8 22.7l1.2-7.2h-1.9c-.7 0-.9-.3-.8-1l2.1-12.9h2.9l1.2-7.1H117l1.5-9.3h-8.1l-1.5 9.3h-3l-1.1 7.1h3l-2.7 17.2c-.4 2.5 1.2 3.9 3.1 3.9h7zm-9.1-36.7H98l-1.2 7.4h8.1l1.2-7.4zm-1.3 8.6h-8.2l-4.4 28.1h8.1l4.5-28.1zm-21.2 28.7c5.4 0 7.9-2.8 8.6-7.2l.2-1c.6-3.8-.8-6-3.7-8.8l-2.7-2.6c-.8-.8-1.1-1.5-.9-2.5l.1-.7c.2-1 .5-1.3 1-1.3.7 0 1 .4.8 1.3l-.4 2.5h7.1l.5-2.8c.6-4-1.9-6.2-6.8-6.2h-1.7c-4.4 0-7.3 1.9-7.9 6.3l-.2 1c-.5 3.1.6 5.6 3.2 8.2l2.6 2.5c.9 1.1 1.3 1.7 1.1 2.9l-.2 1c-.1.7-.3 1.4-1.1 1.4h-.1c-.6 0-1-.4-.9-1.4l.5-3.2h-7.3l-.5 3.3c-.7 4.6 1.9 7.2 6.9 7.2h1.8zm-24.8-.6h5.4l3.3-21c.2-1.5.8-2.1 1.8-2.1s1.4.8 1.2 2.1l-3.3 21.1h5.5l3.8-23.7c.3-2-.3-4.5-3.1-4.5h-.2c-2.2 0-4.2 2.1-5 3.5l.5-3.3h-5.4l-4.5 27.9zm-8.4-4.8c-.9 0-1.3-.7-1.1-1.8l.6-3.9c.2-1 .3-1.7 1-2.4.6-.5 1.5-.9 2.2-1.3l-1.1 7.3c-.2 1.3-.6 2.1-1.6 2.1m-6.7 0c-.4 2.6.5 5 2.9 5h.1c2.6 0 4.2-2.2 4.8-3.4-.3 2.4.2 3.2 1.4 3.2H58l.8-5.2h-.9c-.5 0-.8-.2-.7-.8l2.6-16.5c.5-3.4-.7-5.9-5.9-5.9h-1c-4.9 0-5.6 3.1-6 5.4l-.6 3.9h4.9l.5-3c.2-1.2.5-1.8 1.5-1.8h.1c1.2 0 1.4.6 1.2 2l-.3 1.7c-.1.7-.2.9-.7 1.1-1.1.5-3.7 1.5-5.2 2.3-2.4 1.2-3.1 2.8-3.6 5.8l-1 6.2zm-4.8-23.3h-5.4L29 306.5h5.4l3.4-21.4c.2-.9.3-1.5 1.1-1.5.7 0 .8.5.7 1.4l-1 6.6H44l1.6-9.9c.4-2.3-.6-3.5-2.5-3.5h-.2c-2.4 0-4 2.5-4.6 3.7l.6-3.5zm-17.5-10.8l-.9 5.7h4.9l-5.3 33.2h5.8l5.3-33.2H36l.9-5.7H21.4zM178.2 120.5c-11.5-28.9-38.8-49.1-75.1-49.1-44.8 0-81.1 36.3-81.1 81.1s36.3 81.1 81.1 81.1c33.5 0 62.3-20.3 74.6-49.3l88.5 36.1V84.6l-88 35.9z"/><path d="M95.5 45.3v22.3h212.3l-38.6 15.7v25.6l67-27.3V45.3M269.2 221.6l38.6 15.8H95.5v22.3h240.7v-36.3l-67-27.3M269.2 115.8v13.9l67-13.4V88.5M269.2 189.2l67 27.3v-27.8l-67-13.4M269.2 134.4v36.2l67 13.4v-63M92.5 67.6V45.3H20.1v84.2C27 97 59.6 70 92.5 67.6M92.5 237.4v22.3H20.1v-84.2c8.8 32.7 37.6 59.4 72.4 61.9"/></svg>